# xmcd
#
# Track frame offsets: 
#        183
#        17905
#        37313
#
# Disc length: 794 seconds
#
# Revision: 4
# Processed by: cddbd v1.5.2PL0 Copyright (c) Steve Scherf et al.
# Submitted via: ExactAudioCopy v1.3
#
DISCID=23031803
DTITLE=Karl Keaton - I'm Sorry
DYEAR=1992
DGENRE=Pop
TTITLE0=I'm Sorry (Single Version)
TTITLE1=I'm Sorry (Instrumental Version)
TTITLE2=I'm Sorry (Extended Version)
EXTD=
EXTT0=
EXTT1=
EXTT2=
PLAYORDER=
